<svg width="85" height="18" viewBox="0 0 85 18" fill="none" xmlns="http://www.w3.org/2000/svg">
<path d="M-1.67787e-05 17.9297V2.30474e-05H7.77417C9.13991 2.30474e-05 10.2868 0.183872 11.2148 0.551571C12.1486 0.919269 12.8519 1.43871 13.3247 2.10991C13.8033 2.78111 14.0426 3.57195 14.0426 4.48244C14.0426 5.14196 13.8966 5.74312 13.6048 6.28591C13.3188 6.8287 12.9161 7.28395 12.3967 7.65165C11.8772 8.01351 11.2702 8.26448 10.5757 8.40455V8.57965C11.3461 8.60883 12.0465 8.80435 12.6768 9.16621C13.3072 9.52224 13.8091 10.0154 14.1826 10.6458C14.5562 11.2703 14.7429 12.0057 14.7429 12.852C14.7429 13.8325 14.4861 14.705 13.9725 15.4696C13.4647 16.2342 12.741 16.8353 11.8013 17.2731C10.8617 17.7108 9.74107 17.9297 8.43953 17.9297H-1.67787e-05ZM4.86761 14.0426H7.14383C7.96094 14.0426 8.57377 13.8908 8.98232 13.5873C9.39088 13.278 9.59516 12.8228 9.59516 12.2216C9.59516 11.8014 9.49885 11.4454 9.30625 11.1535C9.11365 10.8617 8.83933 10.6399 8.48331 10.4882C8.13312 10.3364 7.70997 10.2606 7.21387 10.2606H4.86761V14.0426ZM4.86761 7.24893H6.86368C7.28975 7.24893 7.6662 7.18181 7.99304 7.04757C8.31988 6.91333 8.57377 6.72073 8.7547 6.46976C8.94147 6.21296 9.03485 5.9007 9.03485 5.53301C9.03485 4.97854 8.83641 4.55539 8.43953 4.26357C8.04265 3.96591 7.54071 3.81708 6.93372 3.81708H4.86761V7.24893ZM16.0274 17.9297V2.30474e-05H23.7665C25.0973 2.30474e-05 26.2616 0.242237 27.2597 0.726665C28.2577 1.21109 29.034 1.90855 29.5884 2.81904C30.1429 3.72953 30.4201 4.82095 30.4201 6.09331C30.4201 7.37733 30.1341 8.46 29.5622 9.34131C28.996 10.2226 28.1994 10.888 27.1721 11.3374C26.1507 11.7868 24.9572 12.0115 23.5914 12.0115H18.969V8.22946H22.6109C23.1829 8.22946 23.6702 8.15942 24.073 8.01935C24.4815 7.87343 24.7938 7.64289 25.0097 7.32772C25.2315 7.01255 25.3424 6.60108 25.3424 6.09331C25.3424 5.5797 25.2315 5.16239 25.0097 4.84138C24.7938 4.51454 24.4815 4.27524 24.073 4.1235C23.6702 3.96591 23.1829 3.88712 22.6109 3.88712H20.895V17.9297H16.0274ZM26.533 9.70025L31.0155 17.9297H25.7276L21.3502 9.70025H26.533ZM36.7123 17.9297H31.4594L37.3776 2.30474e-05H44.0312L49.9494 17.9297H44.6966L40.7745 4.93769H40.6344L36.7123 17.9297ZM35.7317 10.8559H45.6071V14.4978H35.7317V10.8559ZM66.7494 2.30474e-05V17.9297H62.6872L56.2087 8.50961H56.1037V17.9297H51.236V2.30474e-05H55.3683L61.7417 9.38508H61.8818V2.30474e-05H66.7494ZM75.5104 17.9297H68.6117V2.30474e-05H75.4403C77.2847 2.30474e-05 78.878 0.358967 80.2204 1.07685C81.5686 1.7889 82.6075 2.81612 83.3371 4.15851C84.0725 5.49507 84.4402 7.09718 84.4402 8.96486C84.4402 10.8325 84.0754 12.4376 83.3458 13.78C82.6163 15.1165 81.5832 16.1437 80.2467 16.8616C78.9101 17.5737 77.3314 17.9297 75.5104 17.9297ZM73.4793 13.7975H75.3353C76.2224 13.7975 76.9782 13.6545 77.6028 13.3685C78.2331 13.0825 78.7117 12.5893 79.0385 11.8889C79.3712 11.1886 79.5375 10.2139 79.5375 8.96486C79.5375 7.71585 79.3683 6.74116 79.0298 6.04078C78.6971 5.3404 78.2068 4.84722 77.559 4.56123C76.917 4.27524 76.129 4.13225 75.1952 4.13225H73.4793V13.7975Z" fill="white"/>
</svg>
